<?xml version="1.0" encoding="UTF-8"?>
<!--Generator: Apple Native CoreSVG 326-->
<!DOCTYPE svg
PUBLIC "-//W3C//DTD SVG 1.1//EN"
       "http://www.w3.org/Graphics/SVG/1.1/DTD/svg11.dtd">
<svg version="1.1" xmlns="http://www.w3.org/2000/svg" xmlns:xlink="http://www.w3.org/1999/xlink" viewBox="0 0 16 16" fill="none">
 <g>
  <path d="M10.9 2.66667C11.5627 2.66667 12.1 2.12934 12.1 1.46667C12.1 0.804005 11.5627 0.266675 10.9 0.266675C10.2373 0.266675 9.69999 0.804005 9.69999 1.46667C9.69999 2.12934 10.2373 2.66667 10.9 2.66667Z" fill="currentColor"/>
  <path d="M8.89999 5.73334L7.29999 7.33334L9.69999 9.73334L8.89999 13.3333L7.03333 11.4667L5.16666 13.3333L4.36666 12.5333L6.23333 10.6667L4.36666 8.79999L2.76666 10.4V8.79999L4.36666 7.19999L6.23333 9.06667L7.83332 7.46667L5.43332 5.06667L6.23333 1.46667L8.09999 3.33334L9.96666 1.46667L10.7667 2.26667L8.89999 4.13334L7.03333 2.26667L6.64999 4.28L8.89999 5.73334Z" fill="currentColor"/>
 </g>
</svg>
